/vscmnt/brussel_pixiu_data/_data_brussel/112/vsc11236/PredSimResults/SUBJ09mtu3D/worker5.mot
version=1
nRows=10
nColumns=50
inDegrees=yes
endheader
                time	         pelvis_tilt	         pelvis_list	     pelvis_rotation	           pelvis_tx	           pelvis_ty	           pelvis_tz	       hip_flexion_r	     hip_adduction_r	      hip_rotation_r	        knee_angle_r	       ankle_angle_r	         mtp_angle_r	       hip_flexion_l	     hip_adduction_l	      hip_rotation_l	        knee_angle_l	       ankle_angle_l	         mtp_angle_l	    lumbar_extension	      lumbar_bending	     lumbar_rotation	 ercspn_r/activation	 intobl_r/activation	 extobl_r/activation	    abd_r/activation	    add_r/activation	hamstrings_r/activation	bifemsh_r/activation	glut_max_r/activation	iliopsoas_r/activation	rect_fem_r/activation	  vasti_r/activation	gastroc_r/activation	 soleus_r/activation	tib_ant_r/activation	 ercspn_l/activation	 intobl_l/activation	 extobl_l/activation	    abd_l/activation	    add_l/activation	hamstrings_l/activation	bifemsh_l/activation	glut_max_l/activation	iliopsoas_l/activation	rect_fem_l/activation	  vasti_l/activation	gastroc_l/activation	 soleus_l/activation	tib_ant_l/activation	
          0.00000000	         -3.66060347	         -1.72404549	          8.12531029	          0.00000000	          0.98880996	         -0.00458352	         28.58276290	         -0.80550750	         -8.07726043	         -6.94009690	          2.92724895	          0.24430976	        -13.15706538	         -3.08624586	         -3.79035417	        -11.94791443	          6.83716668	         34.36951875	        -14.19059534	         -0.06018208	         -2.63726265	          0.00999999	          0.14831182	          0.06403346	          0.05363893	          0.17645134	          0.06079853	          0.18653108	          0.07672614	          0.09223655	          0.02743613	          0.00999999	          0.01905558	          0.01448161	          0.34193071	          0.00999999	          0.00999999	          0.03147594	          0.02523729	          0.02307605	          0.05422724	          0.16437919	          0.02117264	          0.00999999	          0.00999999	          0.00999999	          0.13080463	          0.25513419	          0.00999999	
          0.01220377	         -3.67244177	         -1.75239565	          8.06279476	          0.01950436	          0.98695977	         -0.00427151	         28.27724407	         -0.66697141	         -8.04378415	         -8.39475537	          2.65993698	          0.20973662	        -13.82192267	         -3.28267810	         -4.27695830	        -12.68017620	          5.60712603	         36.07241670	        -13.73495709	          0.32821178	         -2.64123874	          0.00999999	          0.12324438	          0.05321062	          0.12915545	          0.17028375	          0.06814127	          0.15500388	          0.09627002	          0.07664687	          0.02279891	          0.00999999	          0.01583483	          0.01203395	          0.37372843	          0.00999999	          0.00999999	          0.02788303	          0.02097172	          0.01917577	          0.06112249	          0.13659608	          0.01759407	          0.00999999	          0.00999999	          0.00999999	          0.10869623	          0.22273904	          0.00999999	
          0.02440754	         -3.67125181	         -1.78620736	          7.96638558	          0.03923721	          0.98542629	         -0.00389550	         27.91039084	         -0.51768384	         -7.99273376	         -9.74990963	          2.18825487	          0.20495288	        -14.27675169	         -3.50014009	         -4.78406036	        -13.81453822	          4.24107391	         37.73759599	        -13.26140442	          0.72717978	         -2.63147684	          0.00999999	          0.10241381	          0.04421705	          0.18271834	          0.17544228	          0.06407994	          0.12880537	          0.13475735	          0.06369213	          0.01894548	          0.00999999	          0.01315845	          0.00999999	          0.41034535	          0.00999999	          0.00999999	          0.02317028	          0.01742711	          0.02164298	          0.05079167	          0.11350882	          0.01462035	          0.00999999	          0.00999999	          0.00999999	          0.09032456	          0.18509203	          0.00999999	
          0.03661131	         -3.65850621	         -1.82028697	          7.83605069	          0.05886939	          0.98440290	         -0.00345519	         27.63866117	         -0.37202105	         -7.94266158	        -11.28270386	          1.76221776	          0.16916581	        -14.41464461	         -3.74069549	         -5.30453140	        -15.49951574	          2.74473445	         39.25663070	        -12.80787604	          1.13321501	         -2.60340683	          0.00999999	          0.08510398	          0.03674355	          0.22799799	          0.19903607	          0.05765114	          0.10703488	          0.17961982	          0.05292699	          0.01574334	          0.02633705	          0.01093443	          0.00999999	          0.42067465	          0.04981995	          0.00999999	          0.01925408	          0.01448161	          0.04738409	          0.04220694	          0.09432374	          0.01214924	          0.02147756	          0.00999999	          0.00999999	          0.07505804	          0.15380806	          0.00999999	
          0.04881508	         -3.63508395	         -1.84556338	          7.67072306	          0.07817093	          0.98404804	         -0.00296820	         27.49724879	         -0.24578731	         -7.89687211	        -13.08996979	          1.66989492	          0.13398368	        -14.14475620	         -4.00285383	         -5.84328252	        -17.86166839	          1.12180976	         40.45126241	        -12.39965249	          1.53820701	         -2.55348415	          0.00999999	          0.07071984	          0.03053321	          0.25483570	          0.22639031	          0.05374297	          0.08894401	          0.20169639	          0.04398135	          0.01308243	          0.07854518	          0.00999999	          0.00999999	          0.41541567	          0.06872295	          0.00999999	          0.01599978	          0.01203395	          0.09885080	          0.03507319	          0.08063668	          0.01009579	          0.05492341	          0.00999999	          0.00999999	          0.06237185	          0.12781166	          0.00999999	
          0.06101885	         -3.60345375	         -1.84699365	          7.46786415	          0.09702947	          0.98447370	         -0.00246756	         27.35937387	         -0.13751410	         -7.84214921	        -14.91520676	          1.83757544	          0.10319469	        -13.40198639	         -4.28331741	         -6.42676681	        -21.00278320	         -0.53185040	         40.88497570	        -12.04709288	          1.92770649	         -2.47807323	          0.01000004	          0.05876688	          0.02537254	          0.25847446	          0.23995942	          0.05505787	          0.07391083	          0.20614191	          0.03654769	          0.01087125	          0.10829351	          0.00999999	          0.00999999	          0.38798506	          0.07081207	          0.00999999	          0.01329552	          0.00999999	          0.13320096	          0.02914517	          0.06700759	          0.00999999	          0.04564034	          0.00999999	          0.00999999	          0.05182986	          0.10620913	          0.00999999	
          0.07322262	         -3.56464657	         -1.80879759	          7.22337569	          0.11543303	          0.98566112	         -0.00198133	         27.11272918	         -0.04576973	         -7.74974333	        -16.55841262	          2.26400724	          0.09681499	        -12.17908524	         -4.58222033	         -7.04008860	        -24.92047215	         -2.21972719	         40.27537938	        -11.74990125	          2.28556537	         -2.37323648	          0.00999999	          0.04883419	          0.02108411	          0.24914743	          0.23859236	          0.06069274	          0.06141854	          0.19156959	          0.03037046	          0.00999999	          0.15082313	          0.00999999	          0.00999999	          0.34421721	          0.05884352	          0.00999999	          0.03531684	          0.00999999	          0.17192202	          0.02421910	          0.05568207	          0.00999999	          0.03792628	          0.00999999	          0.00999999	          0.04306965	          0.08825783	          0.02859035	
          0.08542639	         -3.52142084	         -1.72313374	          6.93796742	          0.13333535	          0.98753199	         -0.00152774	         26.67730207	          0.03596149	         -7.57942411	        -17.85249745	          2.86992849	          0.17628028	        -10.50726488	         -4.89947498	         -7.63735461	        -29.51262510	         -3.93488591	         38.36243172	        -11.51143576	          2.60201104	         -2.24112763	          0.00999999	          0.04058031	          0.01752050	          0.22671471	          0.19826585	          0.05702502	          0.05103767	          0.15919080	          0.02523729	          0.00999999	          0.18090480	          0.00999999	          0.00999999	          0.29551803	          0.06821883	          0.05972415	          0.08851511	          0.00999999	          0.14664800	          0.02012563	          0.04627077	          0.00999999	          0.03151604	          0.00999999	          0.00999999	          0.03579009	          0.07334063	          0.08168237	
          0.09763016	         -3.47549163	         -1.59209753	          6.62020151	          0.15062476	          0.98993852	         -0.00108034	         26.06030466	          0.10692095	         -7.32895735	        -18.77436444	          3.53252129	          0.37969265	         -8.45960906	         -5.22939665	         -8.14290807	        -34.61801676	         -5.43104214	         34.80345880	        -11.34638086	          2.86686397	         -2.08589384	          0.00999999	          0.03372149	          0.01455922	          0.19072754	          0.16475526	          0.05456738	          0.04241136	          0.13228461	          0.02097172	          0.00999999	          0.20776364	          0.00999999	          0.00999999	          0.25242975	          0.09894079	          0.11043572	          0.14889904	          0.01143910	          0.12186178	          0.01672403	          0.03845016	          0.00999999	          0.02618925	          0.00999999	          0.00999999	          0.02974090	          0.06094471	          0.19103227	
          0.10983393	         -3.42834455	         -1.43371380	          6.26780006	          0.16722653	          0.99268615	         -0.00063511	         25.29683274	          0.17414742	         -7.02807015	        -19.35762875	          4.17280028	          0.72706150	         -6.16370642	         -5.49201716	         -8.39756413	        -39.96686739	         -6.26789497	         29.97127954	        -11.26305232	          3.08880276	         -1.89920390	          0.00999999	          0.02802194	          0.01209844	          0.15855403	          0.13690858	          0.04905094	          0.03524306	          0.10992607	          0.01742711	          0.00999999	          0.21125771	          0.00999999	          0.00999999	          0.21615551	          0.10478852	          0.11909133	          0.18116373	          0.01338925	          0.10126489	          0.01389736	          0.03195376	          0.00999999	          0.02176278	          0.00999999	          0.00999999	          0.03932509	          0.05064393	          0.21045051	
